<svg width="124" height="138" viewBox="0 0 124 138" fill="none" xmlns="http://www.w3.org/2000/svg">
<rect x="32" y="51" width="52" height="60" rx="4" fill="url(#paint0_linear)"/>
<rect x="38" y="46" width="52" height="59" rx="4" fill="url(#paint1_linear)"/>
<line x1="45" y1="66" x2="81" y2="66" stroke="white" stroke-width="2" stroke-linecap="round"/>
<line x1="45" y1="58" x2="81" y2="58" stroke="white" stroke-width="2" stroke-linecap="round"/>
<line x1="45" y1="75" x2="62" y2="75" stroke="white" stroke-width="2" stroke-linecap="round"/>
<line opacity="0.2" x1="52" y1="134" x2="65" y2="134" stroke="#3371D0" stroke-width="2" stroke-linecap="round"/>
<line opacity="0.3" x1="77" y1="134" x2="97" y2="134" stroke="#3371D0" stroke-width="2" stroke-linecap="round"/>
<line opacity="0.3" x1="27" y1="124" x2="89" y2="124" stroke="#3371D0" stroke-width="2" stroke-linecap="round"/>
<circle cx="82" cy="101" r="18" fill="#5285EC"/>
<circle cx="73.5" cy="27.5" r="3.5" stroke="#90B5FF" stroke-width="2" stroke-linecap="round"/>
<circle cx="22.5" cy="16.5" r="3.5" stroke="#90B5FF" stroke-width="2" stroke-linecap="round"/>
<circle cx="114.5" cy="60.5" r="2.5" stroke="#90B5FF" stroke-width="2" stroke-linecap="round"/>
<circle cx="103.5" cy="8.5" r="4.5" stroke="#90B5FF" stroke-width="2" stroke-linecap="round"/>
<circle cx="9.5" cy="66.5" r="2.5" stroke="#90B5FF" stroke-width="2" stroke-linecap="round"/>
<path d="M82 92L82 101L91 101" stroke="white" stroke-width="3" stroke-linecap="round" stroke-linejoin="round"/>
<defs>
<linearGradient id="paint0_linear" x1="32" y1="103.39" x2="84" y2="103.39" gradientUnits="userSpaceOnUse">
<stop stop-color="#E7F0FF"/>
<stop offset="1" stop-color="#BBD2F9"/>
</linearGradient>
<linearGradient id="paint1_linear" x1="38.0287" y1="75.4989" x2="90.0167" y2="75.4989" gradientUnits="userSpaceOnUse">
<stop stop-color="#CDDEF9"/>
<stop offset="1" stop-color="#8BB2F2"/>
</linearGradient>
</defs>
</svg>
