<svg width="124" height="138" viewBox="0 0 124 138" fill="none" xmlns="http://www.w3.org/2000/svg">
<rect x="23" y="51" width="72" height="60" rx="4" fill="url(#paint0_linear)"/>
<rect x="29" y="46" width="72" height="59" rx="4" fill="url(#paint1_linear)"/>
<path fill-rule="evenodd" clip-rule="evenodd" d="M33 20.6774C31.6628 21.1912 30.708 22.4802 30.708 24C30.708 25.5206 31.6628 26.8095 33 27.3226C32.6815 28.5759 32.1877 29.7572 31.541 30.8427C30.2321 30.262 28.6446 30.5004 27.571 31.574C26.4974 32.6476 26.2591 34.2321 26.8419 35.5433C25.7579 36.1877 24.5766 36.6815 23.3226 37C22.8088 35.6621 21.5198 34.708 20 34.708C18.4824 34.708 17.1934 35.6621 16.6774 37C15.4241 36.6815 14.2428 36.1877 13.1544 35.5433C13.738 34.235 13.4996 32.6476 12.426 31.574C11.3524 30.4974 9.76795 30.2591 8.45674 30.8427C7.81227 29.7572 7.31926 28.5759 7 27.3226C8.33794 26.8095 9.29202 25.5206 9.29202 24C9.29202 22.4824 8.33794 21.1942 7 20.6774C7.31926 19.4234 7.81227 18.2428 8.45971 17.1581C9.76795 17.738 11.3554 17.5004 12.429 16.426C13.5033 15.3524 13.7409 13.7679 13.1573 12.4567C14.2428 11.8123 15.4241 11.3185 16.6774 11C17.1905 12.3372 18.4794 13.2928 20 13.2928C21.5176 13.2928 22.8066 12.3372 23.3226 11C24.5766 11.3185 25.7579 11.8123 26.8449 12.4567C26.262 13.765 26.5004 15.3524 27.574 16.426C28.6476 17.5026 30.2321 17.7409 31.5433 17.1581C32.1877 18.2428 32.6815 19.4234 33 20.6774ZM15.6667 24.0003C15.6667 26.3932 17.6069 28.3333 20 28.3333C22.3931 28.3333 24.3333 26.3932 24.3333 24.0003C24.3333 21.6068 22.3931 19.6667 20 19.6667C17.6069 19.6667 15.6667 21.6068 15.6667 24.0003Z" fill="url(#paint2_linear)"/>
<path fill-rule="evenodd" clip-rule="evenodd" d="M53 33.2109C52.28 33.4876 51.7658 34.1816 51.7658 35C51.7658 35.8188 52.28 36.5128 53 36.7891C52.8285 37.4639 52.5626 38.1 52.2144 38.6845C51.5096 38.3719 50.6548 38.5002 50.0767 39.0783C49.4986 39.6564 49.3703 40.5096 49.6841 41.2156C49.1004 41.5626 48.4643 41.8285 47.7891 42C47.5124 41.2796 46.8184 40.7658 46 40.7658C45.1828 40.7658 44.4888 41.2796 44.2109 42C43.5361 41.8285 42.9 41.5626 42.3139 41.2156C42.6281 40.5112 42.4998 39.6564 41.9217 39.0783C41.3436 38.4986 40.4904 38.3703 39.7844 38.6845C39.4374 38.1 39.1719 37.4639 39 36.7891C39.7204 36.5128 40.2342 35.8188 40.2342 35C40.2342 34.1828 39.7204 33.4892 39 33.2109C39.1719 32.5357 39.4374 31.9 39.786 31.3159C40.4904 31.6281 41.3452 31.5002 41.9233 30.9217C42.5018 30.3436 42.6297 29.4904 42.3155 28.7844C42.9 28.4374 43.5361 28.1715 44.2109 28C44.4872 28.72 45.1812 29.2346 46 29.2346C46.8172 29.2346 47.5112 28.72 47.7891 28C48.4643 28.1715 49.1004 28.4374 49.6857 28.7844C49.3719 29.4888 49.5002 30.3436 50.0783 30.9217C50.6564 31.5014 51.5096 31.6297 52.2156 31.3159C52.5626 31.9 52.8285 32.5357 53 33.2109ZM43.6667 35.0001C43.6667 36.2886 44.7114 37.3332 46 37.3332C47.2886 37.3332 48.3333 36.2886 48.3333 35.0001C48.3333 33.7113 47.2886 32.6666 46 32.6666C44.7114 32.6666 43.6667 33.7113 43.6667 35.0001Z" fill="url(#paint3_linear)"/>
<path fill-rule="evenodd" clip-rule="evenodd" d="M103 15.0943C102.434 15.3117 102.03 15.857 102.03 16.5C102.03 17.1433 102.434 17.6886 103 17.9057C102.865 18.4359 102.656 18.9357 102.383 19.395C101.829 19.1493 101.157 19.2502 100.703 19.7044C100.249 20.1586 100.148 20.8289 100.395 21.3837C99.936 21.6563 99.4363 21.8652 98.9057 22C98.6883 21.4339 98.143 21.0303 97.5 21.0303C96.8579 21.0303 96.3126 21.4339 96.0943 22C95.5641 21.8652 95.0643 21.6563 94.6038 21.3837C94.8507 20.8302 94.7498 20.1586 94.2956 19.7044C93.8414 19.2489 93.1711 19.1481 92.6163 19.395C92.3437 18.9357 92.1351 18.4359 92 17.9057C92.5661 17.6886 92.9697 17.1433 92.9697 16.5C92.9697 15.8579 92.5661 15.3129 92 15.0943C92.1351 14.5637 92.3437 14.0643 92.6176 13.6053C93.1711 13.8507 93.8427 13.7502 94.2969 13.2956C94.7514 12.8414 94.8519 12.1711 94.605 11.6163C95.0643 11.3437 95.5641 11.1348 96.0943 11C96.3114 11.5657 96.8567 11.97 97.5 11.97C98.1421 11.97 98.6874 11.5657 98.9057 11C99.4363 11.1348 99.936 11.3437 100.396 11.6163C100.149 12.1698 100.25 12.8414 100.704 13.2956C101.159 13.7511 101.829 13.8519 102.384 13.6053C102.656 14.0643 102.865 14.5637 103 15.0943ZM95.6667 16.5C95.6667 17.5124 96.4875 18.3332 97.5 18.3332C98.5124 18.3332 99.3333 17.5124 99.3333 16.5C99.3333 15.4874 98.5124 14.6665 97.5 14.6665C96.4875 14.6665 95.6667 15.4874 95.6667 16.5Z" fill="url(#paint4_linear)"/>
<path fill-rule="evenodd" clip-rule="evenodd" d="M119 118.094C118.434 118.312 118.03 118.857 118.03 119.5C118.03 120.143 118.434 120.689 119 120.906C118.865 121.436 118.656 121.936 118.383 122.395C117.829 122.149 117.157 122.25 116.703 122.704C116.249 123.159 116.148 123.829 116.395 124.384C115.936 124.656 115.436 124.865 114.906 125C114.688 124.434 114.143 124.03 113.5 124.03C112.858 124.03 112.313 124.434 112.094 125C111.564 124.865 111.064 124.656 110.604 124.384C110.851 123.83 110.75 123.159 110.296 122.704C109.841 122.249 109.171 122.148 108.616 122.395C108.344 121.936 108.135 121.436 108 120.906C108.566 120.689 108.97 120.143 108.97 119.5C108.97 118.858 108.566 118.313 108 118.094C108.135 117.564 108.344 117.064 108.618 116.605C109.171 116.851 109.843 116.75 110.297 116.296C110.751 115.841 110.852 115.171 110.605 114.616C111.064 114.344 111.564 114.135 112.094 114C112.311 114.566 112.857 114.97 113.5 114.97C114.142 114.97 114.687 114.566 114.906 114C115.436 114.135 115.936 114.344 116.396 114.616C116.149 115.17 116.25 115.841 116.704 116.296C117.159 116.751 117.829 116.852 118.384 116.605C118.656 117.064 118.865 117.564 119 118.094ZM111.667 119.5C111.667 120.512 112.488 121.333 113.5 121.333C114.512 121.333 115.333 120.512 115.333 119.5C115.333 118.487 114.512 117.667 113.5 117.667C112.488 117.667 111.667 118.487 111.667 119.5Z" fill="url(#paint5_linear)"/>
<line opacity="0.2" x1="67" y1="134" x2="74" y2="134" stroke="#3371D0" stroke-width="2" stroke-linecap="round"/>
<line opacity="0.4" x1="82" y1="134" x2="95" y2="134" stroke="#3371D0" stroke-width="2" stroke-linecap="round"/>
<line opacity="0.3" x1="16" y1="124" x2="78" y2="124" stroke="#3371D0" stroke-width="2" stroke-linecap="round"/>
<circle cx="93" cy="101" r="18" fill="#FEA900"/>
<line x1="93.5" y1="102.5" x2="93.5" y2="91.5" stroke="white" stroke-width="3" stroke-linecap="round"/>
<line x1="93.5" y1="108.5" x2="93.5" y2="107.5" stroke="white" stroke-width="3" stroke-linecap="round"/>
<rect x="29" y="56" width="72" height="1" rx="0.5" fill="url(#paint6_linear)"/>
<rect x="59" y="69" width="33" height="2" rx="1" fill="url(#paint7_linear)"/>
<rect x="59" y="77" width="23" height="2" rx="1" fill="url(#paint8_linear)"/>
<circle cx="46" cy="74" r="7" fill="#DAE7FF"/>
<circle cx="39" cy="51" r="1" fill="white"/>
<circle cx="43" cy="51" r="1" fill="white"/>
<circle cx="47" cy="51" r="1" fill="white"/>
<defs>
<linearGradient id="paint0_linear" x1="23" y1="103.39" x2="95" y2="103.39" gradientUnits="userSpaceOnUse">
<stop stop-color="#E7F0FF"/>
<stop offset="1" stop-color="#BBD2F9"/>
</linearGradient>
<linearGradient id="paint1_linear" x1="29.0397" y1="75.4989" x2="101.023" y2="75.4989" gradientUnits="userSpaceOnUse">
<stop stop-color="#CDDEF9"/>
<stop offset="1" stop-color="#8BB2F2"/>
</linearGradient>
<linearGradient id="paint2_linear" x1="7.01435" y1="23.9995" x2="33.0084" y2="23.9995" gradientUnits="userSpaceOnUse">
<stop stop-color="#CDDEF9"/>
<stop offset="1" stop-color="#8BB2F2"/>
</linearGradient>
<linearGradient id="paint3_linear" x1="39.0077" y1="34.9997" x2="53.0045" y2="34.9997" gradientUnits="userSpaceOnUse">
<stop stop-color="#CDDEF9"/>
<stop offset="1" stop-color="#8BB2F2"/>
</linearGradient>
<linearGradient id="paint4_linear" x1="92.0061" y1="16.4998" x2="103.004" y2="16.4998" gradientUnits="userSpaceOnUse">
<stop stop-color="#CDDEF9"/>
<stop offset="1" stop-color="#8BB2F2"/>
</linearGradient>
<linearGradient id="paint5_linear" x1="108.006" y1="119.5" x2="119.004" y2="119.5" gradientUnits="userSpaceOnUse">
<stop stop-color="#CDDEF9"/>
<stop offset="1" stop-color="#8BB2F2"/>
</linearGradient>
<linearGradient id="paint6_linear" x1="29" y1="56.8732" x2="101" y2="56.8732" gradientUnits="userSpaceOnUse">
<stop stop-color="#F2F7FF"/>
<stop offset="1" stop-color="#C4DAFF"/>
</linearGradient>
<linearGradient id="paint7_linear" x1="59" y1="70.7463" x2="92" y2="70.7463" gradientUnits="userSpaceOnUse">
<stop stop-color="#F2F7FF"/>
<stop offset="1" stop-color="#C4DAFF"/>
</linearGradient>
<linearGradient id="paint8_linear" x1="59" y1="78.7463" x2="82" y2="78.7463" gradientUnits="userSpaceOnUse">
<stop stop-color="#F2F7FF"/>
<stop offset="1" stop-color="#C4DAFF"/>
</linearGradient>
</defs>
</svg>
